<mxfile host="65bd71144e">
    <diagram name="Fachdienst" id="euBj5xrBh4o_RF6xaW2p">
        <mxGraphModel dx="1805" dy="1116" grid="1" gridSize="10" guides="1" tooltips="1" connect="1" arrows="1" fold="1" page="1" pageScale="1" pageWidth="827" pageHeight="1169" math="0" shadow="0">
            <root>
                <mxCell id="0"/>
                <mxCell id="1" parent="0"/>
                <UserObject label="&lt;div style=&quot;font-size: 1px&quot;&gt;&lt;font style=&quot;font-size: 16.93px; color: rgb(0, 0, 0); direction: ltr; letter-spacing: 0px; line-height: 120%; opacity: 1;&quot;&gt;&lt;b style=&quot;&quot;&gt;VZD-FHIR-Directory&lt;br&gt;&lt;/b&gt;&lt;/font&gt;&lt;/div&gt;" tags="Hintergrund" id="CfJ6PVG0hl9HaETuA9oQ-1">
                    <mxCell style="verticalAlign=top;align=center;vsdxID=1;fillColor=#f5f5f5;shape=stencil(nZBLDoAgDERP0z3SIyjew0SURgSD+Lu9kMZoXLhwN9O+tukAlrNpJg1SzDH4QW/URgNYgZTkjA4UkwJUgGXng+6DX1zLfmoymdXo17xh5zmRJ6Q42BWCfc2oJfdAr+Yv+AP9Cb7OJ3H/2JG1HNGz/84klThPVCc=);strokeColor=#666666;points=[];labelBackgroundColor=none;rounded=0;html=1;whiteSpace=wrap;fontColor=#333333;" parent="1" vertex="1">
                        <mxGeometry x="330" y="25" width="376" height="121" as="geometry"/>
                    </mxCell>
                </UserObject>
                <mxCell id="9" style="edgeStyle=none;html=1;entryX=0.5;entryY=0;entryDx=0;entryDy=0;endArrow=none;endFill=0;exitX=0.511;exitY=0.996;exitDx=0;exitDy=0;exitPerimeter=0;" parent="1" source="CfJ6PVG0hl9HaETuA9oQ-2" target="8" edge="1">
                    <mxGeometry relative="1" as="geometry">
                        <mxPoint x="520" y="460" as="sourcePoint"/>
                    </mxGeometry>
                </mxCell>
                <UserObject label="&lt;div style=&quot;font-size: 1px&quot;&gt;&lt;font style=&quot;font-size: 16.93px; color: rgb(0, 0, 0); direction: ltr; letter-spacing: 0px; line-height: 120%; opacity: 1;&quot;&gt;&lt;b style=&quot;&quot;&gt;     TI-M FD ePA&lt;br&gt;&lt;/b&gt;&lt;/font&gt;&lt;/div&gt;" tags="Hintergrund" id="CfJ6PVG0hl9HaETuA9oQ-2">
                    <mxCell style="verticalAlign=top;align=center;vsdxID=2;fillColor=#f5f5f5;shape=stencil(nZBLDoAgDERP0z3SIyjew0SURgSD+Lu9kMZoXLhwN9O+tukAlrNpJg1SzDH4QW/URgNYgZTkjA4UkwJUgGXng+6DX1zLfmoymdXo17xh5zmRJ6Q42BWCfc2oJfdAr+Yv+AP9Cb7OJ3H/2JG1HNGz/84klThPVCc=);points=[];labelBackgroundColor=none;rounded=0;html=1;whiteSpace=wrap;strokeColor=#666666;fontColor=#333333;" parent="1" vertex="1">
                        <mxGeometry x="330" y="205" width="377" height="255" as="geometry"/>
                    </mxCell>
                </UserObject>
                <UserObject label="&lt;div style=&quot;font-size: 1px&quot;&gt;&lt;font style=&quot;font-size:14.11px;font-family:Arial;color:#000000;direction:ltr;letter-spacing:0px;line-height:120%;opacity:1&quot;&gt;Registrierungs-&lt;br/&gt;Dienst&lt;br/&gt;&lt;/font&gt;&lt;/div&gt;" tags="Hintergrund" id="CfJ6PVG0hl9HaETuA9oQ-6">
                    <mxCell style="verticalAlign=middle;align=center;vsdxID=6;fillColor=#dae8fc;shape=stencil(nZBLDoAgDERP0z3SIyjew0SURgSD+Lu9kMZoXLhwN9O+tukAlrNpJg1SzDH4QW/URgNYgZTkjA4UkwJUgGXng+6DX1zLfmoymdXo17xh5zmRJ6Q42BWCfc2oJfdAr+Yv+AP9Cb7OJ3H/2JG1HNGz/84klThPVCc=);strokeColor=#6c8ebf;strokeWidth=2;spacingTop=-1;spacingBottom=-1;spacingLeft=-1;spacingRight=-1;points=[[0.5,0,0],[1,0.5,0],[0.5,0.5,0],[0.5,0.5,0]];labelBackgroundColor=none;rounded=0;html=1;whiteSpace=wrap;" parent="1" vertex="1">
                        <mxGeometry x="351" y="266" width="108" height="50" as="geometry"/>
                    </mxCell>
                </UserObject>
                <UserObject label="&lt;div style=&quot;font-size: 1px&quot;&gt;&lt;font style=&quot;font-size:14.11px;font-family:Arial;color:#000000;direction:ltr;letter-spacing:0px;line-height:120%;opacity:1&quot;&gt;&lt;b&gt;TI-M&lt;/b&gt;&lt;/font&gt;&lt;/div&gt;&lt;div style=&quot;font-size: 1px&quot;&gt;&lt;font style=&quot;font-size:14.11px;font-family:Arial;color:#000000;direction:ltr;letter-spacing:0px;line-height:120%;opacity:1&quot;&gt;&lt;b&gt;Client ePA&lt;/b&gt;&lt;/font&gt;&lt;/div&gt;" tags="Hintergrund" id="CfJ6PVG0hl9HaETuA9oQ-7">
                    <mxCell style="verticalAlign=middle;align=center;vsdxID=7;fillColor=#dae8fc;shape=stencil(nZBLDoAgDERP0z3SIyjew0SURgSD+Lu9kMZoXLhwN9O+tukAlrNpJg1SzDH4QW/URgNYgZTkjA4UkwJUgGXng+6DX1zLfmoymdXo17xh5zmRJ6Q42BWCfc2oJfdAr+Yv+AP9Cb7OJ3H/2JG1HNGz/84klThPVCc=);strokeColor=#6c8ebf;strokeWidth=2;spacingTop=-1;spacingBottom=-1;spacingLeft=-1;spacingRight=-1;points=[[0.5,0,0],[1,0.5,0],[0.5,0.5,0],[0.5,0.5,0]];labelBackgroundColor=none;rounded=0;html=1;whiteSpace=wrap;" parent="1" vertex="1">
                        <mxGeometry x="46" y="25" width="104" height="320" as="geometry"/>
                    </mxCell>
                </UserObject>
                <UserObject label="&lt;div style=&quot;font-size: 1px&quot;&gt;&lt;font style=&quot;font-size:14.11px;font-family:Arial;color:#000000;direction:ltr;letter-spacing:0px;line-height:120%;opacity:1&quot;&gt;Push-&lt;br/&gt;Gateway&lt;br/&gt;&lt;/font&gt;&lt;/div&gt;" tags="Hintergrund" id="CfJ6PVG0hl9HaETuA9oQ-9">
                    <mxCell style="verticalAlign=middle;align=center;vsdxID=9;fillColor=#f5f5f5;shape=stencil(nZBLDoAgDERP0z3SIyjew0SURgSD+Lu9kMZoXLhwN9O+tukAlrNpJg1SzDH4QW/URgNYgZTkjA4UkwJUgGXng+6DX1zLfmoymdXo17xh5zmRJ6Q42BWCfc2oJfdAr+Yv+AP9Cb7OJ3H/2JG1HNGz/84klThPVCc=);strokeWidth=2;spacingTop=-1;spacingBottom=-1;spacingLeft=-1;spacingRight=-1;points=[[0.5,0,0],[1,0.5,0],[0.5,0.5,0],[0.5,0.5,0]];labelBackgroundColor=none;rounded=0;html=1;whiteSpace=wrap;strokeColor=#666666;fontColor=#333333;" parent="1" vertex="1">
                        <mxGeometry x="190" y="228" width="105" height="32.5" as="geometry"/>
                    </mxCell>
                </UserObject>
                <UserObject label="&lt;div style=&quot;font-size: 1px&quot;&gt;&lt;font style=&quot;font-size:14.11px;font-family:Arial;color:#000000;direction:ltr;letter-spacing:0px;line-height:120%;opacity:1&quot;&gt;FHIR-Directory&lt;br/&gt;&lt;/font&gt;&lt;/div&gt;" tags="Hintergrund" id="CfJ6PVG0hl9HaETuA9oQ-10">
                    <mxCell style="verticalAlign=middle;align=center;vsdxID=10;fillColor=#f5f5f5;shape=stencil(nZE9DsIwDIVP4xWFWAydS7kAJ4iIIRYhqdLwe3rSukhRB4Zmst/7YkvPgO3gTE+g1ZBTvNKTbXaAe9Cag6PEuVSAHWB7jokuKd6Dlb43hdRqUsjKn+1Ia2XS6cgfEg2bTVO93czIkFt8jMtfgiqx3vMwJf1BUM+hQn/mKvgPuhJcrC/FFI8Ex95LurW/jLNIcgrsvg==);strokeColor=#666666;strokeWidth=2;spacingTop=2;spacingBottom=2;spacingLeft=3;spacingRight=3;points=[[0.5,0,0],[1,0.5,0],[0.5,0.5,0],[0.5,0.5,0]];labelBackgroundColor=none;rounded=1;html=1;whiteSpace=wrap;fontColor=#333333;" parent="1" vertex="1">
                        <mxGeometry x="480" y="82" width="218.5" height="50" as="geometry"/>
                    </mxCell>
                </UserObject>
                <UserObject label="&lt;div style=&quot;font-size: 1px&quot;&gt;&lt;font style=&quot;font-size:14.11px;font-family:Arial;color:#000000;direction:ltr;letter-spacing:0px;line-height:120%;opacity:1&quot;&gt;FHIR-Proxy&lt;br/&gt;&lt;/font&gt;&lt;/div&gt;" tags="Hintergrund" id="CfJ6PVG0hl9HaETuA9oQ-11">
                    <mxCell style="verticalAlign=middle;align=center;vsdxID=11;fillColor=#dae8fc;shape=stencil(nZBLDoAgDERP0z3SIyjew0SURgSD+Lu9kMZoXLhwN9O+tukAlrNpJg1SzDH4QW/URgNYgZTkjA4UkwJUgGXng+6DX1zLfmoymdXo17xh5zmRJ6Q42BWCfc2oJfdAr+Yv+AP9Cb7OJ3H/2JG1HNGz/84klThPVCc=);strokeColor=#6c8ebf;strokeWidth=2;spacingTop=-1;spacingBottom=-1;spacingLeft=-1;spacingRight=-1;points=[[0.5,0,0],[1,0.5,0],[0.5,0.5,0],[0.5,0.5,0]];labelBackgroundColor=none;rounded=0;html=1;whiteSpace=wrap;" parent="1" vertex="1">
                        <mxGeometry x="370" y="100" width="70" height="32" as="geometry"/>
                    </mxCell>
                </UserObject>
                <UserObject label="&lt;div style=&quot;font-size: 1px&quot;&gt;&lt;font style=&quot;font-size: 14.11px; color: rgb(0, 0, 0); direction: ltr; letter-spacing: 0px; line-height: 120%; opacity: 1;&quot;&gt;&lt;b style=&quot;&quot;&gt;Sektoraler IDP&lt;br&gt;&lt;/b&gt;&lt;/font&gt;&lt;/div&gt;" tags="Hintergrund" id="CfJ6PVG0hl9HaETuA9oQ-12">
                    <mxCell style="verticalAlign=middle;align=center;vsdxID=12;shape=stencil(nZBLDoAgDERP0z3SIyjew0SURgSD+Lu9kMZoXLhwN9O+tukAlrNpJg1SzDH4QW/URgNYgZTkjA4UkwJUgGXng+6DX1zLfmoymdXo17xh5zmRJ6Q42BWCfc2oJfdAr+Yv+AP9Cb7OJ3H/2JG1HNGz/84klThPVCc=);strokeWidth=2;spacingTop=-1;spacingBottom=-1;spacingLeft=-1;spacingRight=-1;points=[[0.5,0,0],[1,0.5,0],[0.5,0.5,0],[0.5,0.5,0]];labelBackgroundColor=none;rounded=0;html=1;whiteSpace=wrap;fillColor=#d5e8d4;strokeColor=#82b366;" parent="1" vertex="1">
                        <mxGeometry x="46" y="395" width="104" height="120" as="geometry"/>
                    </mxCell>
                </UserObject>
                <UserObject label="&lt;div style=&quot;font-size: 1px&quot;&gt;&lt;font style=&quot;font-size:14.11px;font-family:Arial;color:#000000;direction:ltr;letter-spacing:0px;line-height:120%;opacity:1&quot;&gt;OAuth&lt;br/&gt;&lt;/font&gt;&lt;/div&gt;" tags="Hintergrund" id="CfJ6PVG0hl9HaETuA9oQ-13">
                    <mxCell style="verticalAlign=middle;align=center;vsdxID=33;fillColor=#f2f2f2;gradientColor=none;shape=stencil(nZE9DsIwDIVP4xWFWAydS7kAJ4iIIRYhqdLwe3rSukhRB4Zmst/7YkvPgO3gTE+g1ZBTvNKTbXaAe9Cag6PEuVSAHWB7jokuKd6Dlb43hdRqUsjKn+1Ia2XS6cgfEg2bTVO93czIkFt8jMtfgiqx3vMwJf1BUM+hQn/mKvgPuhJcrC/FFI8Ex95LurW/jLNIcgrsvg==);strokeColor=#000000;strokeWidth=2;spacingTop=2;spacingBottom=2;spacingLeft=3;spacingRight=3;points=[[0.5,0,0],[1,0.5,0],[0.5,0.5,0],[0.5,0.5,0]];labelBackgroundColor=none;rounded=1;html=1;whiteSpace=wrap;" parent="1" vertex="1">
                        <mxGeometry x="632" y="38" width="61" height="28" as="geometry"/>
                    </mxCell>
                </UserObject>
                <UserObject label="&lt;div style=&quot;font-size: 1px&quot;&gt;&lt;font style=&quot;font-size:14.11px;font-family:Arial;color:#000000;direction:ltr;letter-spacing:0px;line-height:120%;opacity:1&quot;&gt;Auth-Service&lt;br/&gt;&lt;/font&gt;&lt;/div&gt;" tags="Hintergrund" id="CfJ6PVG0hl9HaETuA9oQ-15">
                    <mxCell style="verticalAlign=middle;align=center;vsdxID=40;fillColor=#dae8fc;shape=stencil(nZE9DsIwDIVP4xWFWAydS7kAJ4iIIRYhqdLwe3rSukhRB4Zmst/7YkvPgO3gTE+g1ZBTvNKTbXaAe9Cag6PEuVSAHWB7jokuKd6Dlb43hdRqUsjKn+1Ia2XS6cgfEg2bTVO93czIkFt8jMtfgiqx3vMwJf1BUM+hQn/mKvgPuhJcrC/FFI8Ex95LurW/jLNIcgrsvg==);strokeColor=#6c8ebf;strokeWidth=2;spacingTop=2;spacingBottom=2;spacingLeft=3;spacingRight=3;points=[[0.5,0,0],[1,0.5,0],[0.5,0.5,0],[0.5,0.5,0]];labelBackgroundColor=none;rounded=1;html=1;whiteSpace=wrap;" parent="1" vertex="1">
                        <mxGeometry x="365" y="60" width="80" height="31" as="geometry"/>
                    </mxCell>
                </UserObject>
                <UserObject label="&lt;div style=&quot;font-size: 1px&quot;&gt;&lt;/div&gt;" tags="Hintergrund" id="CfJ6PVG0hl9HaETuA9oQ-16">
                    <mxCell style="verticalAlign=top;align=center;vsdxID=41;fillColor=#d8d8d8;gradientColor=none;shape=stencil(nZBLDoAgDERP0z3SIyjew0SURgSD+Lu9kMZoXLhwN9O+tukAlrNpJg1SzDH4QW/URgNYgZTkjA4UkwJUgGXng+6DX1zLfmoymdXo17xh5zmRJ6Q42BWCfc2oJfdAr+Yv+AP9Cb7OJ3H/2JG1HNGz/84klThPVCc=);strokeWidth=2;points=[];labelBackgroundColor=none;rounded=0;html=1;whiteSpace=wrap;" parent="1" vertex="1">
                        <mxGeometry x="498" y="250" width="198" height="158" as="geometry"/>
                    </mxCell>
                </UserObject>
                <UserObject label="&lt;div style=&quot;font-size: 1px&quot;&gt;&lt;/div&gt;" tags="Hintergrund" id="CfJ6PVG0hl9HaETuA9oQ-17">
                    <mxCell style="verticalAlign=top;align=center;vsdxID=42;fillColor=#d8d8d8;gradientColor=none;shape=stencil(nZBLDoAgDERP0z3SIyjew0SURgSD+Lu9kMZoXLhwN9O+tukAlrNpJg1SzDH4QW/URgNYgZTkjA4UkwJUgGXng+6DX1zLfmoymdXo17xh5zmRJ6Q42BWCfc2oJfdAr+Yv+AP9Cb7OJ3H/2JG1HNGz/84klThPVCc=);strokeWidth=2;points=[];labelBackgroundColor=none;rounded=0;html=1;whiteSpace=wrap;" parent="1" vertex="1">
                        <mxGeometry x="489" y="258" width="198" height="158" as="geometry"/>
                    </mxCell>
                </UserObject>
                <UserObject label="&lt;div style=&quot;font-size: 1px&quot;&gt;&lt;font style=&quot;font-size:14.11px;font-family:Arial;color:#000000;direction:ltr;letter-spacing:0px;line-height:120%;opacity:1&quot;&gt;Messenger-Service&lt;br/&gt;&lt;/font&gt;&lt;/div&gt;" tags="Hintergrund" id="CfJ6PVG0hl9HaETuA9oQ-18">
                    <mxCell style="verticalAlign=top;align=center;vsdxID=43;fillColor=#d8d8d8;gradientColor=none;shape=stencil(nZBLDoAgDERP0z3SIyjew0SURgSD+Lu9kMZoXLhwN9O+tukAlrNpJg1SzDH4QW/URgNYgZTkjA4UkwJUgGXng+6DX1zLfmoymdXo17xh5zmRJ6Q42BWCfc2oJfdAr+Yv+AP9Cb7OJ3H/2JG1HNGz/84klThPVCc=);strokeWidth=2;points=[];labelBackgroundColor=none;rounded=0;html=1;whiteSpace=wrap;" parent="1" vertex="1">
                        <mxGeometry x="480" y="266" width="198" height="158" as="geometry"/>
                    </mxCell>
                </UserObject>
                <UserObject label="&lt;div style=&quot;font-size: 1px&quot;&gt;&lt;font style=&quot;font-size:14.11px;font-family:Arial;color:#000000;direction:ltr;letter-spacing:0px;line-height:120%;opacity:1&quot;&gt;Messenger-&lt;br/&gt;Proxy&lt;br/&gt;&lt;/font&gt;&lt;/div&gt;" tags="Hintergrund" id="CfJ6PVG0hl9HaETuA9oQ-19">
                    <mxCell style="verticalAlign=middle;align=center;vsdxID=44;fillColor=#dae8fc;shape=stencil(nZBLDoAgDERP0z3SIyjew0SURgSD+Lu9kMZoXLhwN9O+tukAlrNpJg1SzDH4QW/URgNYgZTkjA4UkwJUgGXng+6DX1zLfmoymdXo17xh5zmRJ6Q42BWCfc2oJfdAr+Yv+AP9Cb7OJ3H/2JG1HNGz/84klThPVCc=);strokeColor=#6c8ebf;strokeWidth=2;spacingTop=-1;spacingBottom=-1;spacingLeft=-1;spacingRight=-1;points=[[0.5,0,0],[1,0.5,0],[0.5,0.5,0],[0.5,0.5,0]];labelBackgroundColor=none;rounded=0;html=1;whiteSpace=wrap;" parent="1" vertex="1">
                        <mxGeometry x="507" y="304" width="146" height="50" as="geometry"/>
                    </mxCell>
                </UserObject>
                <UserObject label="&lt;div style=&quot;font-size: 1px&quot;&gt;&lt;font style=&quot;font-size:14.11px;font-family:Arial;color:#000000;direction:ltr;letter-spacing:0px;line-height:120%;opacity:1&quot;&gt;Matrix-&lt;br/&gt;Homeserver&lt;br/&gt;&lt;/font&gt;&lt;/div&gt;" tags="Hintergrund" id="CfJ6PVG0hl9HaETuA9oQ-20">
                    <mxCell style="verticalAlign=middle;align=center;vsdxID=45;fillColor=#dae8fc;shape=stencil(nZBLDoAgDERP0z3SIyjew0SURgSD+Lu9kMZoXLhwN9O+tukAlrNpJg1SzDH4QW/URgNYgZTkjA4UkwJUgGXng+6DX1zLfmoymdXo17xh5zmRJ6Q42BWCfc2oJfdAr+Yv+AP9Cb7OJ3H/2JG1HNGz/84klThPVCc=);strokeWidth=2;spacingTop=-1;spacingBottom=-1;spacingLeft=-1;spacingRight=-1;points=[[0.5,0,0],[1,0.5,0],[0.5,0.5,0],[0.5,0.5,0]];labelBackgroundColor=none;rounded=0;html=1;whiteSpace=wrap;strokeColor=#6c8ebf;" parent="1" vertex="1">
                        <mxGeometry x="507" y="364" width="146" height="50" as="geometry"/>
                    </mxCell>
                </UserObject>
                <mxCell id="CfJ6PVG0hl9HaETuA9oQ-21" parent="1" vertex="1">
                    <mxGeometry x="166" y="415" as="geometry"/>
                </mxCell>
                <mxCell id="CfJ6PVG0hl9HaETuA9oQ-22" value="" style="group" parent="1" vertex="1" connectable="0">
                    <mxGeometry x="146" y="310" width="40" height="29" as="geometry"/>
                </mxCell>
                <mxCell id="CfJ6PVG0hl9HaETuA9oQ-23" value="R" style="text;html=1;strokeColor=none;fillColor=none;align=center;verticalAlign=middle;whiteSpace=wrap;overflow=hidden;fontFamily=Helvetica;fontSize=10;fontColor=#000000;fontStyle=1" parent="CfJ6PVG0hl9HaETuA9oQ-22" vertex="1">
                    <mxGeometry width="40" height="20" as="geometry"/>
                </mxCell>
                <mxCell id="CfJ6PVG0hl9HaETuA9oQ-24" value="" style="ellipse;whiteSpace=wrap;html=1;strokeColor=#1C1C1C;fillColor=none;fontFamily=Tahoma;fontSize=14;fontColor=#525252;align=center;strokeWidth=2;" parent="CfJ6PVG0hl9HaETuA9oQ-22" vertex="1">
                    <mxGeometry x="15" y="19" width="10" height="10" as="geometry"/>
                </mxCell>
                <mxCell id="CfJ6PVG0hl9HaETuA9oQ-25" style="edgeStyle=none;rounded=0;html=1;startArrow=none;startFill=0;endArrow=classic;endFill=1;jettySize=auto;orthogonalLoop=1;strokeColor=#000000;fontFamily=Helvetica;fontSize=10;fontColor=#000000;targetPerimeterSpacing=0;endSize=8;sourcePerimeterSpacing=0;startSize=0;" parent="CfJ6PVG0hl9HaETuA9oQ-22" edge="1">
                    <mxGeometry relative="1" as="geometry">
                        <mxPoint x="36" y="10" as="targetPoint"/>
                        <mxPoint x="28" y="10" as="sourcePoint"/>
                    </mxGeometry>
                </mxCell>
                <mxCell id="CfJ6PVG0hl9HaETuA9oQ-26" value="" style="group" parent="1" vertex="1" connectable="0">
                    <mxGeometry x="146" y="71" width="40" height="29" as="geometry"/>
                </mxCell>
                <mxCell id="CfJ6PVG0hl9HaETuA9oQ-27" value="R" style="text;html=1;strokeColor=none;fillColor=none;align=center;verticalAlign=middle;whiteSpace=wrap;overflow=hidden;fontFamily=Helvetica;fontSize=10;fontColor=#000000;fontStyle=1" parent="CfJ6PVG0hl9HaETuA9oQ-26" vertex="1">
                    <mxGeometry width="40" height="20" as="geometry"/>
                </mxCell>
                <mxCell id="CfJ6PVG0hl9HaETuA9oQ-28" value="" style="ellipse;whiteSpace=wrap;html=1;strokeColor=#1C1C1C;fillColor=none;fontFamily=Tahoma;fontSize=14;fontColor=#525252;align=center;strokeWidth=2;" parent="CfJ6PVG0hl9HaETuA9oQ-26" vertex="1">
                    <mxGeometry x="15" y="19" width="10" height="10" as="geometry"/>
                </mxCell>
                <mxCell id="CfJ6PVG0hl9HaETuA9oQ-29" style="edgeStyle=none;rounded=0;html=1;startArrow=none;startFill=0;endArrow=classic;endFill=1;jettySize=auto;orthogonalLoop=1;strokeColor=#000000;fontFamily=Helvetica;fontSize=10;fontColor=#000000;targetPerimeterSpacing=0;endSize=8;sourcePerimeterSpacing=0;startSize=0;" parent="CfJ6PVG0hl9HaETuA9oQ-26" edge="1">
                    <mxGeometry relative="1" as="geometry">
                        <mxPoint x="36" y="10" as="targetPoint"/>
                        <mxPoint x="28" y="10" as="sourcePoint"/>
                    </mxGeometry>
                </mxCell>
                <mxCell id="CfJ6PVG0hl9HaETuA9oQ-30" value="" style="group;rotation=-180;" parent="1" vertex="1" connectable="0">
                    <mxGeometry x="508" y="170" width="40" height="20" as="geometry"/>
                </mxCell>
                <mxCell id="CfJ6PVG0hl9HaETuA9oQ-31" value="" style="group;rotation=-180;" parent="CfJ6PVG0hl9HaETuA9oQ-30" vertex="1" connectable="0">
                    <mxGeometry width="40" height="20" as="geometry"/>
                </mxCell>
                <mxCell id="CfJ6PVG0hl9HaETuA9oQ-32" value="" style="group;rotation=-180;" parent="CfJ6PVG0hl9HaETuA9oQ-31" vertex="1" connectable="0">
                    <mxGeometry width="40" height="20" as="geometry"/>
                </mxCell>
                <mxCell id="CfJ6PVG0hl9HaETuA9oQ-33" value="" style="endArrow=classic;html=1;strokeColor=#000000;fontFamily=Helvetica;fontSize=14;fontColor=#525252;rounded=0;" parent="CfJ6PVG0hl9HaETuA9oQ-32" edge="1">
                    <mxGeometry width="50" height="50" relative="1" as="geometry">
                        <mxPoint x="20" y="1" as="sourcePoint"/>
                        <mxPoint x="20" y="-4" as="targetPoint"/>
                    </mxGeometry>
                </mxCell>
                <mxCell id="CfJ6PVG0hl9HaETuA9oQ-34" value="" style="ellipse;whiteSpace=wrap;html=1;strokeColor=#1C1C1C;fillColor=none;fontFamily=Tahoma;fontSize=14;fontColor=#525252;align=center;strokeWidth=2;rotation=-180;" parent="CfJ6PVG0hl9HaETuA9oQ-32" vertex="1">
                    <mxGeometry width="10" height="10" as="geometry"/>
                </mxCell>
                <mxCell id="CfJ6PVG0hl9HaETuA9oQ-35" value="R" style="text;html=1;strokeColor=none;fillColor=none;align=center;verticalAlign=middle;whiteSpace=wrap;overflow=hidden;fontFamily=Helvetica;fontSize=10;fontColor=#000000;fontStyle=1;rotation=0;" parent="CfJ6PVG0hl9HaETuA9oQ-32" vertex="1">
                    <mxGeometry width="40" height="20" as="geometry"/>
                </mxCell>
                <mxCell id="CfJ6PVG0hl9HaETuA9oQ-36" style="edgeStyle=orthogonalEdgeStyle;rounded=0;orthogonalLoop=1;jettySize=auto;html=1;exitX=1;exitY=0.5;exitDx=0;exitDy=0;entryX=0;entryY=0.583;entryDx=0;entryDy=0;entryPerimeter=0;endArrow=none;endFill=0;" parent="1" source="CfJ6PVG0hl9HaETuA9oQ-28" target="CfJ6PVG0hl9HaETuA9oQ-1" edge="1">
                    <mxGeometry relative="1" as="geometry"/>
                </mxCell>
                <mxCell id="CfJ6PVG0hl9HaETuA9oQ-37" value="" style="endArrow=none;html=1;rounded=0;entryX=0;entryY=0.5;entryDx=0;entryDy=0;" parent="1" target="CfJ6PVG0hl9HaETuA9oQ-28" edge="1">
                    <mxGeometry width="50" height="50" relative="1" as="geometry">
                        <mxPoint x="150" y="95" as="sourcePoint"/>
                        <mxPoint x="207" y="110" as="targetPoint"/>
                    </mxGeometry>
                </mxCell>
                <mxCell id="CfJ6PVG0hl9HaETuA9oQ-38" value="" style="endArrow=none;html=1;rounded=0;entryX=0.5;entryY=0;entryDx=0;entryDy=0;exitX=0.487;exitY=0;exitDx=0;exitDy=0;exitPerimeter=0;" parent="1" source="CfJ6PVG0hl9HaETuA9oQ-2" target="CfJ6PVG0hl9HaETuA9oQ-34" edge="1">
                    <mxGeometry width="50" height="50" relative="1" as="geometry">
                        <mxPoint x="448.5" y="205" as="sourcePoint"/>
                        <mxPoint x="450" y="180" as="targetPoint"/>
                    </mxGeometry>
                </mxCell>
                <mxCell id="CfJ6PVG0hl9HaETuA9oQ-40" value="" style="endArrow=none;html=1;rounded=0;exitX=1;exitY=0.871;exitDx=0;exitDy=0;exitPerimeter=0;entryX=0;entryY=0.5;entryDx=0;entryDy=0;" parent="1" target="CfJ6PVG0hl9HaETuA9oQ-24" edge="1">
                    <mxGeometry width="50" height="50" relative="1" as="geometry">
                        <mxPoint x="150" y="333.72" as="sourcePoint"/>
                        <mxPoint x="210" y="250" as="targetPoint"/>
                    </mxGeometry>
                </mxCell>
                <mxCell id="CfJ6PVG0hl9HaETuA9oQ-41" value="" style="endArrow=none;html=1;rounded=0;entryX=0;entryY=0.31;entryDx=0;entryDy=0;entryPerimeter=0;exitX=1;exitY=0.5;exitDx=0;exitDy=0;" parent="1" source="CfJ6PVG0hl9HaETuA9oQ-24" edge="1">
                    <mxGeometry width="50" height="50" relative="1" as="geometry">
                        <mxPoint x="190" y="300" as="sourcePoint"/>
                        <mxPoint x="330" y="334.20000000000005" as="targetPoint"/>
                    </mxGeometry>
                </mxCell>
                <mxCell id="CfJ6PVG0hl9HaETuA9oQ-42" value="" style="group" parent="1" vertex="1" connectable="0">
                    <mxGeometry x="70" y="355" width="40" height="20" as="geometry"/>
                </mxCell>
                <mxCell id="CfJ6PVG0hl9HaETuA9oQ-43" value="" style="group" parent="CfJ6PVG0hl9HaETuA9oQ-42" vertex="1" connectable="0">
                    <mxGeometry width="40" height="20" as="geometry"/>
                </mxCell>
                <mxCell id="CfJ6PVG0hl9HaETuA9oQ-44" value="" style="group" parent="CfJ6PVG0hl9HaETuA9oQ-43" vertex="1" connectable="0">
                    <mxGeometry width="40" height="20" as="geometry"/>
                </mxCell>
                <mxCell id="CfJ6PVG0hl9HaETuA9oQ-45" value="" style="endArrow=classic;html=1;strokeColor=#000000;fontFamily=Helvetica;fontSize=14;fontColor=#525252;rounded=0;" parent="CfJ6PVG0hl9HaETuA9oQ-44" edge="1">
                    <mxGeometry width="50" height="50" relative="1" as="geometry">
                        <mxPoint x="20" y="19" as="sourcePoint"/>
                        <mxPoint x="20" y="24" as="targetPoint"/>
                    </mxGeometry>
                </mxCell>
                <mxCell id="CfJ6PVG0hl9HaETuA9oQ-46" value="R" style="text;html=1;strokeColor=none;fillColor=none;align=center;verticalAlign=middle;whiteSpace=wrap;overflow=hidden;fontFamily=Helvetica;fontSize=10;fontColor=#000000;fontStyle=1" parent="CfJ6PVG0hl9HaETuA9oQ-44" vertex="1">
                    <mxGeometry width="40" height="20" as="geometry"/>
                </mxCell>
                <mxCell id="CfJ6PVG0hl9HaETuA9oQ-47" value="" style="ellipse;whiteSpace=wrap;html=1;strokeColor=#1C1C1C;fillColor=none;fontFamily=Tahoma;fontSize=14;fontColor=#525252;align=center;strokeWidth=2;" parent="CfJ6PVG0hl9HaETuA9oQ-44" vertex="1">
                    <mxGeometry x="29" y="10" width="10" height="10" as="geometry"/>
                </mxCell>
                <mxCell id="CfJ6PVG0hl9HaETuA9oQ-48" value="" style="endArrow=none;html=1;rounded=0;entryX=0.559;entryY=0.998;entryDx=0;entryDy=0;entryPerimeter=0;exitX=0.5;exitY=0;exitDx=0;exitDy=0;" parent="1" source="CfJ6PVG0hl9HaETuA9oQ-47" target="CfJ6PVG0hl9HaETuA9oQ-7" edge="1">
                    <mxGeometry width="50" height="50" relative="1" as="geometry">
                        <mxPoint x="140" y="400" as="sourcePoint"/>
                        <mxPoint x="190" y="350" as="targetPoint"/>
                    </mxGeometry>
                </mxCell>
                <mxCell id="CfJ6PVG0hl9HaETuA9oQ-49" value="" style="endArrow=none;html=1;rounded=0;entryX=0.5;entryY=1;entryDx=0;entryDy=0;exitX=0.559;exitY=-0.006;exitDx=0;exitDy=0;exitPerimeter=0;" parent="1" source="CfJ6PVG0hl9HaETuA9oQ-12" target="CfJ6PVG0hl9HaETuA9oQ-47" edge="1">
                    <mxGeometry width="50" height="50" relative="1" as="geometry">
                        <mxPoint x="60" y="440" as="sourcePoint"/>
                        <mxPoint x="110" y="390" as="targetPoint"/>
                    </mxGeometry>
                </mxCell>
                <mxCell id="CfJ6PVG0hl9HaETuA9oQ-50" value="" style="group;flipV=0;flipH=1;" parent="1" vertex="1" connectable="0">
                    <mxGeometry x="146" y="394" width="40" height="30" as="geometry"/>
                </mxCell>
                <mxCell id="CfJ6PVG0hl9HaETuA9oQ-51" value="R" style="text;html=1;strokeColor=none;fillColor=none;align=center;verticalAlign=middle;whiteSpace=wrap;overflow=hidden;fontFamily=Helvetica;fontSize=10;fontColor=#000000;fontStyle=1;flipV=1;flipH=1;" parent="CfJ6PVG0hl9HaETuA9oQ-50" vertex="1">
                    <mxGeometry y="1" width="40" height="20" as="geometry"/>
                </mxCell>
                <mxCell id="CfJ6PVG0hl9HaETuA9oQ-52" value="" style="ellipse;whiteSpace=wrap;html=1;strokeColor=#1C1C1C;fillColor=none;fontFamily=Tahoma;fontSize=14;fontColor=#525252;align=center;strokeWidth=2;" parent="CfJ6PVG0hl9HaETuA9oQ-50" vertex="1">
                    <mxGeometry x="15" y="17" width="10" height="10" as="geometry"/>
                </mxCell>
                <mxCell id="CfJ6PVG0hl9HaETuA9oQ-53" style="edgeStyle=none;rounded=0;html=1;startArrow=none;startFill=0;endArrow=classic;endFill=1;jettySize=auto;orthogonalLoop=1;strokeColor=#000000;fontFamily=Helvetica;fontSize=10;fontColor=#000000;targetPerimeterSpacing=0;endSize=8;sourcePerimeterSpacing=0;startSize=0;" parent="CfJ6PVG0hl9HaETuA9oQ-50" edge="1">
                    <mxGeometry relative="1" as="geometry">
                        <mxPoint x="4" y="10" as="targetPoint"/>
                        <mxPoint x="12" y="10" as="sourcePoint"/>
                    </mxGeometry>
                </mxCell>
                <mxCell id="CfJ6PVG0hl9HaETuA9oQ-54" value="" style="endArrow=none;html=1;rounded=0;entryX=0;entryY=0.5;entryDx=0;entryDy=0;exitX=0.999;exitY=0.177;exitDx=0;exitDy=0;exitPerimeter=0;" parent="1" source="CfJ6PVG0hl9HaETuA9oQ-12" target="CfJ6PVG0hl9HaETuA9oQ-52" edge="1">
                    <mxGeometry width="50" height="50" relative="1" as="geometry">
                        <mxPoint x="130" y="550" as="sourcePoint"/>
                        <mxPoint x="180" y="500" as="targetPoint"/>
                    </mxGeometry>
                </mxCell>
                <mxCell id="CfJ6PVG0hl9HaETuA9oQ-55" value="" style="endArrow=none;html=1;rounded=0;exitX=1;exitY=0.5;exitDx=0;exitDy=0;entryX=-0.003;entryY=0.827;entryDx=0;entryDy=0;entryPerimeter=0;" parent="1" source="CfJ6PVG0hl9HaETuA9oQ-52" target="CfJ6PVG0hl9HaETuA9oQ-2" edge="1">
                    <mxGeometry width="50" height="50" relative="1" as="geometry">
                        <mxPoint x="170" y="530" as="sourcePoint"/>
                        <mxPoint x="220" y="480" as="targetPoint"/>
                    </mxGeometry>
                </mxCell>
                <mxCell id="2" value="Komponenten-PKI" style="rounded=0;whiteSpace=wrap;html=1;fillColor=#f5f5f5;fontColor=#333333;strokeColor=#666666;" parent="1" vertex="1">
                    <mxGeometry x="329" y="510" width="377" height="60" as="geometry"/>
                </mxCell>
                <mxCell id="3" value="" style="group" parent="1" vertex="1" connectable="0">
                    <mxGeometry x="488" y="470" width="40" height="20" as="geometry"/>
                </mxCell>
                <mxCell id="4" value="" style="group" parent="3" vertex="1" connectable="0">
                    <mxGeometry width="40" height="20" as="geometry"/>
                </mxCell>
                <mxCell id="5" value="" style="group" parent="4" vertex="1" connectable="0">
                    <mxGeometry width="40" height="20" as="geometry"/>
                </mxCell>
                <mxCell id="6" value="" style="endArrow=classic;html=1;strokeColor=#000000;fontFamily=Helvetica;fontSize=14;fontColor=#525252;" parent="5" edge="1">
                    <mxGeometry width="50" height="50" relative="1" as="geometry">
                        <mxPoint x="20" y="19" as="sourcePoint"/>
                        <mxPoint x="20" y="24" as="targetPoint"/>
                    </mxGeometry>
                </mxCell>
                <mxCell id="7" value="R" style="text;html=1;strokeColor=none;fillColor=none;align=center;verticalAlign=middle;whiteSpace=wrap;overflow=hidden;fontFamily=Helvetica;fontSize=10;fontColor=#000000;fontStyle=1" parent="5" vertex="1">
                    <mxGeometry width="40" height="20" as="geometry"/>
                </mxCell>
                <mxCell id="8" value="" style="ellipse;whiteSpace=wrap;html=1;strokeColor=#1C1C1C;fillColor=none;fontFamily=Tahoma;fontSize=14;fontColor=#525252;align=center;strokeWidth=2;" parent="5" vertex="1">
                    <mxGeometry x="29" y="10" width="10" height="10" as="geometry"/>
                </mxCell>
                <mxCell id="10" style="edgeStyle=none;html=1;entryX=0.51;entryY=0;entryDx=0;entryDy=0;entryPerimeter=0;endArrow=none;endFill=0;" parent="1" source="8" target="2" edge="1">
                    <mxGeometry relative="1" as="geometry"/>
                </mxCell>
                <mxCell id="11" value="" style="group;flipH=1;" parent="1" vertex="1" connectable="0">
                    <mxGeometry x="159" y="228" width="22" height="21" as="geometry"/>
                </mxCell>
                <mxCell id="12" value="" style="shape=mxgraph.arrows2.wedgeArrow;html=1;bendable=0;startWidth=3.002680965147455;fillColor=strokeColor;defaultFillColor=invert;defaultGradientColor=invert;fontSize=11;endArrow=none;endFill=0;" parent="11" edge="1">
                    <mxGeometry width="100" height="100" relative="1" as="geometry">
                        <mxPoint x="5" y="-65.10000000000002" as="sourcePoint"/>
                        <mxPoint y="-65" as="targetPoint"/>
                    </mxGeometry>
                </mxCell>
                <mxCell id="13" value="" style="ellipse;whiteSpace=wrap;html=1;strokeColor=#1C1C1C;fillColor=none;fontFamily=Tahoma;fontSize=14;fontColor=#525252;align=center;strokeWidth=2;" parent="11" vertex="1">
                    <mxGeometry x="2" y="-59" width="10" height="10" as="geometry"/>
                </mxCell>
                <mxCell id="15" value="" style="group;flipH=1;" parent="1" vertex="1" connectable="0">
                    <mxGeometry x="306" y="228" width="22" height="21" as="geometry"/>
                </mxCell>
                <mxCell id="16" value="" style="shape=mxgraph.arrows2.wedgeArrow;html=1;bendable=0;startWidth=3.002680965147455;fillColor=strokeColor;defaultFillColor=invert;defaultGradientColor=invert;fontSize=11;endArrow=none;endFill=0;" parent="15" edge="1">
                    <mxGeometry width="100" height="100" relative="1" as="geometry">
                        <mxPoint x="5" y="4.899999999999977" as="sourcePoint"/>
                        <mxPoint y="5" as="targetPoint"/>
                    </mxGeometry>
                </mxCell>
                <mxCell id="17" value="" style="ellipse;whiteSpace=wrap;html=1;strokeColor=#1C1C1C;fillColor=none;fontFamily=Tahoma;fontSize=14;fontColor=#525252;align=center;strokeWidth=2;" parent="15" vertex="1">
                    <mxGeometry x="2" y="11" width="10" height="10" as="geometry"/>
                </mxCell>
                <mxCell id="18" value="&lt;b&gt;R&lt;/b&gt;" style="text;strokeColor=none;align=center;fillColor=none;html=1;verticalAlign=middle;whiteSpace=wrap;rounded=0;fontSize=11;spacing=2;" parent="15" vertex="1">
                    <mxGeometry x="1" width="21" height="9" as="geometry"/>
                </mxCell>
                <mxCell id="21" style="edgeStyle=none;html=1;entryX=-0.005;entryY=0.467;entryDx=0;entryDy=0;entryPerimeter=0;endArrow=none;endFill=0;" parent="1" source="13" target="27" edge="1">
                    <mxGeometry relative="1" as="geometry"/>
                </mxCell>
                <mxCell id="22" style="edgeStyle=none;html=1;exitX=0;exitY=0.5;exitDx=0;exitDy=0;endArrow=none;endFill=0;" parent="1" source="13" edge="1">
                    <mxGeometry relative="1" as="geometry">
                        <mxPoint x="150" y="174" as="targetPoint"/>
                    </mxGeometry>
                </mxCell>
                <mxCell id="23" style="edgeStyle=none;html=1;endArrow=none;endFill=0;entryX=1;entryY=0.5;entryDx=0;entryDy=0;entryPerimeter=0;" parent="1" source="17" target="CfJ6PVG0hl9HaETuA9oQ-9" edge="1">
                    <mxGeometry relative="1" as="geometry">
                        <mxPoint x="280" y="247" as="targetPoint"/>
                    </mxGeometry>
                </mxCell>
                <mxCell id="24" style="edgeStyle=none;html=1;endArrow=none;endFill=0;" parent="1" source="17" edge="1">
                    <mxGeometry relative="1" as="geometry">
                        <mxPoint x="330" y="244" as="targetPoint"/>
                    </mxGeometry>
                </mxCell>
                <mxCell id="25" style="edgeStyle=none;html=1;entryX=0.488;entryY=1.005;entryDx=0;entryDy=0;entryPerimeter=0;endArrow=none;endFill=0;" parent="1" source="CfJ6PVG0hl9HaETuA9oQ-34" target="CfJ6PVG0hl9HaETuA9oQ-1" edge="1">
                    <mxGeometry relative="1" as="geometry"/>
                </mxCell>
                <UserObject label="&lt;div style=&quot;font-size: 1px&quot;&gt;&lt;font style=&quot;font-size:14.11px;font-family:Arial;color:#000000;direction:ltr;letter-spacing:0px;line-height:120%;opacity:1&quot;&gt;Push-Provider&lt;/font&gt;&lt;/div&gt;" tags="Hintergrund" id="27">
                    <mxCell style="verticalAlign=middle;align=center;vsdxID=9;fillColor=#f5f5f5;shape=stencil(nZBLDoAgDERP0z3SIyjew0SURgSD+Lu9kMZoXLhwN9O+tukAlrNpJg1SzDH4QW/URgNYgZTkjA4UkwJUgGXng+6DX1zLfmoymdXo17xh5zmRJ6Q42BWCfc2oJfdAr+Yv+AP9Cb7OJ3H/2JG1HNGz/84klThPVCc=);strokeWidth=2;spacingTop=-1;spacingBottom=-1;spacingLeft=-1;spacingRight=-1;points=[[0.5,0,0],[1,0.5,0],[0.5,0.5,0],[0.5,0.5,0]];labelBackgroundColor=none;rounded=0;html=1;whiteSpace=wrap;strokeColor=#666666;fontColor=#333333;" parent="1" vertex="1">
                        <mxGeometry x="190" y="160" width="100" height="30" as="geometry"/>
                    </mxCell>
                </UserObject>
                <mxCell id="14" value="&lt;b&gt;R&lt;/b&gt;" style="text;strokeColor=none;align=center;fillColor=none;html=1;verticalAlign=middle;whiteSpace=wrap;rounded=0;fontSize=11;spacing=2;" parent="1" vertex="1">
                    <mxGeometry x="159.5" y="158" width="21" height="9" as="geometry"/>
                </mxCell>
                <mxCell id="44" value="" style="group;rotation=-180;" parent="1" vertex="1" connectable="0">
                    <mxGeometry x="235" y="205" width="40" height="20" as="geometry"/>
                </mxCell>
                <mxCell id="45" value="" style="group;rotation=-180;" parent="44" vertex="1" connectable="0">
                    <mxGeometry width="40" height="20" as="geometry"/>
                </mxCell>
                <mxCell id="46" value="" style="group;rotation=-180;" parent="45" vertex="1" connectable="0">
                    <mxGeometry width="40" height="20" as="geometry"/>
                </mxCell>
                <mxCell id="49" value="R" style="text;html=1;strokeColor=none;fillColor=none;align=center;verticalAlign=middle;whiteSpace=wrap;overflow=hidden;fontFamily=Helvetica;fontSize=10;fontColor=#000000;fontStyle=1;rotation=0;" parent="46" vertex="1">
                    <mxGeometry width="40" height="20" as="geometry"/>
                </mxCell>
                <mxCell id="47" value="" style="endArrow=classic;html=1;strokeColor=#000000;fontFamily=Helvetica;fontSize=14;fontColor=#525252;rounded=0;" parent="46" edge="1">
                    <mxGeometry width="50" height="50" relative="1" as="geometry">
                        <mxPoint x="20" y="1" as="sourcePoint"/>
                        <mxPoint x="20" y="-4" as="targetPoint"/>
                    </mxGeometry>
                </mxCell>
                <mxCell id="48" value="" style="ellipse;whiteSpace=wrap;html=1;strokeColor=#1C1C1C;fillColor=none;fontFamily=Tahoma;fontSize=14;fontColor=#525252;align=center;strokeWidth=2;rotation=-180;" parent="46" vertex="1">
                    <mxGeometry width="10" height="10" as="geometry"/>
                </mxCell>
                <mxCell id="50" style="edgeStyle=none;html=1;entryX=0.5;entryY=1;entryDx=0;entryDy=0;entryPerimeter=0;endArrow=none;endFill=0;" parent="1" source="48" target="27" edge="1">
                    <mxGeometry relative="1" as="geometry"/>
                </mxCell>
                <mxCell id="53" style="edgeStyle=none;html=1;entryX=0.469;entryY=0;entryDx=0;entryDy=0;entryPerimeter=0;endArrow=none;endFill=0;" parent="1" source="48" target="CfJ6PVG0hl9HaETuA9oQ-9" edge="1">
                    <mxGeometry relative="1" as="geometry"/>
                </mxCell>
            </root>
        </mxGraphModel>
    </diagram>
</mxfile>